<svg width="21" height="19" viewBox="0 0 21 19" fill="none" xmlns="http://www.w3.org/2000/svg">
<path d="M14.6672 12.7012L15.8339 11.5346C16.0161 11.3523 16.3333 11.4799 16.3333 11.7424V17.0434C16.3333 18.0096 15.5495 18.7934 14.5833 18.7934H1.75C0.783854 18.7934 0 18.0096 0 17.0434V4.21009C0 3.24395 0.783854 2.46009 1.75 2.46009H11.7214C11.9802 2.46009 12.1115 2.77363 11.9292 2.95957L10.7625 4.12624C10.7078 4.18092 10.6349 4.21009 10.5547 4.21009H1.75V17.0434H14.5833V12.9054C14.5833 12.8288 14.6125 12.7559 14.6672 12.7012ZM20.3766 5.34395L10.8026 14.9179L7.50677 15.2825C6.55156 15.3882 5.73854 14.5825 5.84427 13.62L6.20885 10.3242L15.7828 0.750195C16.6177 -0.0847006 17.9667 -0.0847006 18.7979 0.750195L20.3729 2.3252C21.2078 3.16009 21.2078 4.5127 20.3766 5.34395ZM16.7745 6.47051L14.6562 4.35228L7.88229 11.1299L7.61614 13.5106L9.99687 13.2445L16.7745 6.47051ZM19.137 3.56478L17.562 1.98978C17.4125 1.8403 17.1682 1.8403 17.0224 1.98978L15.8958 3.11634L18.0141 5.23457L19.1406 4.10801C19.2865 3.95488 19.2865 3.71426 19.137 3.56478Z" fill="black"/>
</svg>
