<svg width="66" height="66" viewBox="0 0 66 66" fill="none" xmlns="http://www.w3.org/2000/svg">
<path fill-rule="evenodd" clip-rule="evenodd" d="M33 0.750443C15.189 0.750443 0.75 15.1894 0.75 33.0004C0.75 50.8114 15.189 65.2504 33 65.2504C50.811 65.2504 65.25 50.8114 65.25 33.0004C65.25 15.1894 50.811 0.750443 33 0.750443ZM5.25 33.0004C5.25 26.1484 7.734 19.8754 11.85 15.0334L21.459 24.6394C19.6939 27.0695 18.7454 29.997 18.75 33.0004C18.7454 36.0039 19.6939 38.9314 21.459 41.3614L11.85 50.9674C7.57723 45.9575 5.23636 39.585 5.25 33.0004ZM24.639 21.4594L15.033 11.8504C20.043 7.57767 26.4155 5.23681 33 5.25044C39.852 5.25044 46.125 7.73444 50.967 11.8504L41.358 21.4594C38.9288 19.695 36.0024 18.7465 33 18.7504C29.9965 18.7458 27.0691 19.6944 24.639 21.4594ZM15.033 54.1504C20.043 58.4232 26.4155 60.7641 33 60.7504C39.5845 60.7641 45.957 58.4232 50.967 54.1504L41.358 44.5414C38.9288 46.3059 36.0024 47.2544 33 47.2504C29.9965 47.255 27.0691 46.3065 24.639 44.5414L15.033 54.1504ZM44.541 41.3584L54.15 50.9674C58.4228 45.9575 60.7636 39.585 60.75 33.0004C60.7636 26.4159 58.4228 20.0434 54.15 15.0334L44.541 24.6394C46.3061 27.0695 47.2546 29.997 47.25 33.0004C47.2546 36.0039 46.3061 38.9284 44.541 41.3584ZM23.25 33.0004C23.25 30.4146 24.2772 27.9346 26.1057 26.1062C27.9342 24.2777 30.4141 23.2504 33 23.2504C35.5859 23.2504 38.0658 24.2777 39.8943 26.1062C41.7228 27.9346 42.75 30.4146 42.75 33.0004C42.75 35.5863 41.7228 38.0663 39.8943 39.8947C38.0658 41.7232 35.5859 42.7504 33 42.7504C30.4141 42.7504 27.9342 41.7232 26.1057 39.8947C24.2772 38.0663 23.25 35.5863 23.25 33.0004Z" fill="black"/>
</svg>
