<svg width="186" height="188" viewBox="0 0 186 188" fill="none" xmlns="http://www.w3.org/2000/svg">
<g clip-path="url(#clip0_2207_1102)">
<path d="M123.293 141.813C139.046 133.82 146.004 123.381 148.831 113.379C153.812 95.7615 137.924 90.5289 130.036 100.266L127.383 92.7132C127.383 92.7132 134.083 80.9893 137.432 77.9077C140.782 74.8261 162.019 74.2901 163.962 79.3145C165.904 84.339 170.627 73.7205 168.685 92.9811C166.742 112.242 149.156 139.608 149.156 139.608C149.156 139.608 126.33 144.814 123.293 141.813Z" fill="url(#paint0_linear_2207_1102)"/>
<path d="M136.685 91.8756C149.664 75.8535 167.662 87.5964 159.455 106.729C157.48 111.332 154.304 116.712 150.112 122.091C120.027 160.689 59.3633 149.723 33.0091 104.076C23.1433 86.6153 19.3246 67.7713 19.7922 51.8123C21.132 6.0896 72.611 -8.77186 83.1052 37.5907C71.9431 -24.852 14.3737 -1.86533 2.87654 50.9517C-3.48679 80.1836 4.01987 118.452 43.0052 155.785C89.0161 199.847 106.431 196.599 146.744 153.709C162.883 136.539 180.857 108.947 184.528 86.4143C190.68 48.6487 154.255 38.6903 131.211 69.5144L122.359 81.3561C108.709 99.6135 91.7012 90.0844 88.8131 74.7972C94.6827 107.58 114.217 115.108 126.237 104.331C129.768 101.092 133.601 95.6827 136.685 91.8756Z" fill="url(#paint1_linear_2207_1102)"/>
<path d="M126.237 104.332C114.217 115.109 94.6824 107.581 88.8128 74.7986C88.7118 74.2636 88.6188 73.7174 88.5343 73.1604L83.5492 40.2845C83.4105 39.37 83.2624 38.4725 83.105 37.5921C72.6107 -8.77044 21.1317 6.09103 19.7919 51.8137C19.3243 67.7728 23.1431 86.6168 33.0088 104.077C19.0265 71.193 38.0476 55.2973 52.7191 58.647C67.3905 61.9968 72.8169 86.7172 88.2923 104.571C102.028 120.418 118.561 111.537 126.237 104.332Z" fill="url(#paint2_linear_2207_1102)"/>
<path d="M142.796 157.857C105.347 195.346 53.4821 166.489 33.1504 145.602C36.1844 149 39.4649 152.397 43.0049 155.787C87.4859 198.384 105.241 196.765 142.796 157.857Z" fill="url(#paint3_linear_2207_1102)"/>
<path d="M110.129 44.6562C113.638 44.6563 117.003 46.0503 119.485 48.5317C121.966 51.013 123.36 54.3784 123.36 57.8876C123.36 60.5044 122.584 63.0625 121.13 65.2383C119.676 67.4142 117.61 69.1102 115.192 70.1116C112.774 71.113 110.114 71.375 107.547 70.8645C104.981 70.354 102.623 69.0938 100.773 67.2434C98.9224 65.393 97.6622 63.0354 97.1517 60.4688C96.6412 57.9022 96.9032 55.2418 97.9046 52.8242C98.9061 50.4065 100.602 48.3401 102.778 46.8862C104.954 45.4323 107.512 44.6562 110.129 44.6562Z" fill="url(#paint4_linear_2207_1102)"/>
</g>
<defs>
<linearGradient id="paint0_linear_2207_1102" x1="146.219" y1="75.5625" x2="146.219" y2="142.745" gradientUnits="userSpaceOnUse">
<stop stop-color="#1B26AC"/>
<stop offset="1" stop-color="#5129CB"/>
</linearGradient>
<linearGradient id="paint1_linear_2207_1102" x1="134" y1="10" x2="58.5" y2="182.5" gradientUnits="userSpaceOnUse">
<stop offset="0.194498" stop-color="#52EADA"/>
<stop offset="0.233779" stop-color="#44D3DB"/>
<stop offset="0.580277" stop-color="#0B73DC"/>
<stop offset="0.868285" stop-color="#9F5BF2"/>
</linearGradient>
<linearGradient id="paint2_linear_2207_1102" x1="72.9954" y1="9.32422" x2="72.9954" y2="113.412" gradientUnits="userSpaceOnUse">
<stop stop-color="#2423AB"/>
<stop offset="1" stop-color="#6E29D8"/>
</linearGradient>
<linearGradient id="paint3_linear_2207_1102" x1="27.2517" y1="150.078" x2="26.5225" y2="191.857" gradientUnits="userSpaceOnUse">
<stop stop-color="#0131B9"/>
<stop offset="0.875" stop-color="#582BD2"/>
</linearGradient>
<linearGradient id="paint4_linear_2207_1102" x1="110.129" y1="44.6564" x2="110.129" y2="71.1188" gradientUnits="userSpaceOnUse">
<stop stop-color="#3BCAB7"/>
<stop offset="1" stop-color="#095CC8"/>
</linearGradient>
<clipPath id="clip0_2207_1102">
<rect width="186" height="188" fill="white"/>
</clipPath>
</defs>
</svg>
