<svg width="64" height="64" viewBox="0 0 64 64" fill="none" xmlns="http://www.w3.org/2000/svg">
<path d="M45.1561 0.361328L48.0541 1.14433C51.5982 2.10336 54.8289 3.97482 57.424 6.57204C60.0191 9.16926 61.8879 12.4015 62.8441 15.9463L63.6241 18.8413L57.8341 20.4043L57.0511 17.5093C56.3678 14.9772 55.0326 12.6686 53.1787 10.8135C51.3247 8.95852 49.0168 7.62202 46.4851 6.93733L43.5901 6.15133L45.1561 0.361328ZM8.68183e-05 1.00033H25.7401L30.2011 21.0703L24.6211 26.6503C27.902 31.7564 32.2432 36.0966 37.3501 39.3763L42.9301 33.7993L63.0001 38.2603V64.0003H60.0001C48.4511 64.02 37.1443 60.6895 27.4501 54.4123C20.3018 49.7862 14.2142 43.6987 9.58809 36.5503C3.31095 26.8561 -0.0196051 15.5493 8.68183e-05 4.00033V1.00033ZM6.08109 7.00033C6.58661 16.3601 9.53327 25.4245 14.6281 33.2923C18.7931 39.7272 24.2732 45.2074 30.7081 49.3723C38.5759 54.4671 47.6403 57.4138 57.0001 57.9193V43.0723L44.8411 40.3723L38.3191 46.8973L36.3301 45.7663C28.778 41.4747 22.5257 35.2224 18.2341 27.6703L17.1031 25.6813L23.6281 19.1593L20.9281 7.00033H6.08109ZM42.4141 10.4953L45.3121 11.2783C47.0841 11.7578 48.6995 12.6936 49.997 13.9922C51.2946 15.2908 52.229 16.9069 52.7071 18.6793L53.4871 21.5743L47.6971 23.1373L46.9141 20.2423C46.7089 19.4827 46.3081 18.7901 45.7517 18.2337C45.1953 17.6773 44.5027 17.2765 43.7431 17.0713L40.8481 16.2883L42.4141 10.4953Z" fill="black"/>
</svg>
