<svg width="23" height="25" viewBox="0 0 23 25" fill="none" xmlns="http://www.w3.org/2000/svg">
<path d="M18.5391 24.5832C17.5321 24.5832 16.6762 24.2307 15.9714 23.5259C15.2665 22.821 14.9141 21.9651 14.9141 20.9582C14.9141 20.8373 14.9443 20.5554 15.0047 20.1123L6.51615 15.1582C6.19392 15.4603 5.82135 15.6971 5.39844 15.8687C4.97552 16.0403 4.5224 16.1256 4.03906 16.1248C3.03212 16.1248 2.17622 15.7724 1.47135 15.0675C0.766493 14.3627 0.414062 13.5068 0.414062 12.4998C0.414062 11.4929 0.766493 10.637 1.47135 9.93213C2.17622 9.22727 3.03212 8.87484 4.03906 8.87484C4.5224 8.87484 4.97552 8.96063 5.39844 9.13221C5.82135 9.3038 6.19392 9.54023 6.51615 9.8415L15.0047 4.88734C14.9644 4.74637 14.9394 4.61063 14.9298 4.48013C14.9201 4.34963 14.9149 4.20342 14.9141 4.0415C14.9141 3.03456 15.2665 2.17866 15.9714 1.4738C16.6762 0.768934 17.5321 0.416504 18.5391 0.416504C19.546 0.416504 20.4019 0.768934 21.1068 1.4738C21.8116 2.17866 22.1641 3.03456 22.1641 4.0415C22.1641 5.04845 21.8116 5.90435 21.1068 6.60921C20.4019 7.31407 19.546 7.6665 18.5391 7.6665C18.0557 7.6665 17.6026 7.58071 17.1797 7.40913C16.7568 7.23755 16.3842 7.00111 16.062 6.69984L7.57344 11.654C7.61372 11.795 7.63909 11.9311 7.64956 12.0624C7.66003 12.1937 7.66487 12.3395 7.66406 12.4998C7.66326 12.6601 7.65842 12.8064 7.64956 12.9385C7.6407 13.0706 7.61533 13.2063 7.57344 13.3457L16.062 18.2998C16.3842 17.9978 16.7568 17.7613 17.1797 17.5905C17.6026 17.4198 18.0557 17.334 18.5391 17.3332C19.546 17.3332 20.4019 17.6856 21.1068 18.3905C21.8116 19.0953 22.1641 19.9512 22.1641 20.9582C22.1641 21.9651 21.8116 22.821 21.1068 23.5259C20.4019 24.2307 19.546 24.5832 18.5391 24.5832ZM18.5391 22.1665C18.8814 22.1665 19.1686 22.0509 19.4006 21.8197C19.6326 21.5885 19.7482 21.3013 19.7474 20.9582C19.7466 20.615 19.6306 20.3282 19.3994 20.0978C19.1682 19.8674 18.8814 19.7514 18.5391 19.7498C18.1967 19.7482 17.9099 19.8642 17.6787 20.0978C17.4475 20.3314 17.3315 20.6182 17.3307 20.9582C17.3299 21.2981 17.4459 21.5853 17.6787 21.8197C17.9115 22.0541 18.1983 22.1697 18.5391 22.1665ZM4.03906 13.7082C4.38142 13.7082 4.6686 13.5922 4.9006 13.3602C5.1326 13.1282 5.2482 12.8414 5.2474 12.4998C5.24659 12.1583 5.13059 11.8715 4.8994 11.6395C4.6682 11.4075 4.38142 11.2915 4.03906 11.2915C3.6967 11.2915 3.40992 11.4075 3.17873 11.6395C2.94754 11.8715 2.83153 12.1583 2.83073 12.4998C2.82992 12.8414 2.94592 13.1286 3.17873 13.3614C3.41154 13.5942 3.69831 13.7098 4.03906 13.7082ZM18.5391 5.24984C18.8814 5.24984 19.1686 5.13384 19.4006 4.90184C19.6326 4.66984 19.7482 4.38306 19.7474 4.0415C19.7466 3.69995 19.6306 3.41317 19.3994 3.18117C19.1682 2.94917 18.8814 2.83317 18.5391 2.83317C18.1967 2.83317 17.9099 2.94917 17.6787 3.18117C17.4475 3.41317 17.3315 3.69995 17.3307 4.0415C17.3299 4.38306 17.4459 4.67024 17.6787 4.90305C17.9115 5.13585 18.1983 5.25145 18.5391 5.24984Z" fill="black"/>
</svg>
