<svg width="24" height="25" viewBox="0 0 24 25" fill="none" xmlns="http://www.w3.org/2000/svg">
<path d="M4.382 9.27198V17.772C4.382 18.617 4.726 19.428 5.339 20.025C5.95687 20.6257 6.78522 20.961 7.647 20.959H16.353C17.219 20.959 18.049 20.623 18.661 20.025C18.9628 19.7323 19.2029 19.3822 19.3673 18.9952C19.5317 18.6083 19.6169 18.1924 19.618 17.772V9.27198M4.382 9.27198C3.48 9.27198 2.75 8.55798 2.75 7.67798V5.55298C2.75 4.67298 3.481 3.95898 4.382 3.95898H19.618C20.52 3.95898 21.25 4.67298 21.25 5.55298V7.67798C21.25 8.55798 20.519 9.27198 19.618 9.27198M4.382 9.27198H19.618" stroke="black" stroke-width="1.5" stroke-linecap="round" stroke-linejoin="round"/>
<path d="M12 17.459V12.459" stroke="black" stroke-width="1.5" stroke-miterlimit="10" stroke-linecap="round"/>
<path d="M14.293 13.4565L12.326 11.4895C12.2832 11.4466 12.2324 11.4125 12.1765 11.3893C12.1205 11.366 12.0606 11.3541 12 11.3541C11.9394 11.3541 11.8794 11.366 11.8235 11.3893C11.7675 11.4125 11.7167 11.4466 11.674 11.4895L9.70697 13.4565" stroke="black" stroke-width="1.5" stroke-linecap="round" stroke-linejoin="round"/>
</svg>
