<svg width="271" height="285" viewBox="0 0 271 285" fill="none" xmlns="http://www.w3.org/2000/svg">
  <path d="M74.1969 16.4531C75.3411 15.1154 76.7616 14.0413 78.3605 13.305C79.9595 12.5686 81.699 12.1874 83.4594 12.1875H187.541C189.301 12.1874 191.04 12.5686 192.639 13.305C194.238 14.0413 195.659 15.1154 196.803 16.4531L228.6 53.5519C231.439 56.8648 233 61.0839 233 65.4469V68.5547C233.001 74.5872 231.117 80.4692 227.611 85.3786C224.105 90.2879 219.153 93.9794 213.447 95.9369C207.741 97.8944 201.566 98.0202 195.785 96.2967C190.004 94.5732 184.906 91.0866 181.203 86.3241C178.5 89.8075 175.035 92.6259 171.074 94.5631C167.113 96.5003 162.761 97.5049 158.352 97.5C153.942 97.5049 149.59 96.5003 145.629 94.5631C141.668 92.6259 138.203 89.8075 135.5 86.3241C132.797 89.8075 129.332 92.6259 125.371 94.5631C121.41 96.5003 117.058 97.5049 112.648 97.5C108.239 97.5049 103.887 96.5003 99.9261 94.5631C95.9651 92.6259 92.5002 89.8075 89.7969 86.3241C86.0942 91.0866 80.9961 94.5732 75.215 96.2967C69.4339 98.0202 63.2588 97.8944 57.5527 95.9369C51.8466 93.9794 46.8947 90.2879 43.3891 85.3786C39.8835 80.4692 37.9993 74.5872 38 68.5547V65.4469C38.0002 61.0839 39.5607 56.8648 42.3997 53.5519L74.1969 16.4531ZM95.8906 68.5547C95.8906 72.9991 97.6562 77.2616 100.799 80.4043C103.942 83.547 108.204 85.3125 112.648 85.3125C117.093 85.3125 121.355 83.547 124.498 80.4043C127.641 77.2616 129.406 72.9991 129.406 68.5547C129.406 66.9385 130.048 65.3886 131.191 64.2458C132.334 63.103 133.884 62.4609 135.5 62.4609C137.116 62.4609 138.666 63.103 139.809 64.2458C140.952 65.3886 141.594 66.9385 141.594 68.5547C141.594 72.9991 143.359 77.2616 146.502 80.4043C149.645 83.547 153.907 85.3125 158.352 85.3125C162.796 85.3125 167.058 83.547 170.201 80.4043C173.344 77.2616 175.109 72.9991 175.109 68.5547C175.109 66.9385 175.751 65.3886 176.894 64.2458C178.037 63.103 179.587 62.4609 181.203 62.4609C182.819 62.4609 184.369 63.103 185.512 64.2458C186.655 65.3886 187.297 66.9385 187.297 68.5547C187.297 72.9991 189.062 77.2616 192.205 80.4043C195.348 83.547 199.61 85.3125 204.055 85.3125C208.499 85.3125 212.762 83.547 215.904 80.4043C219.047 77.2616 220.812 72.9991 220.812 68.5547V65.4469C220.813 63.9945 220.294 62.5898 219.35 61.4859L187.541 24.375H83.4594L51.65 61.4859C50.706 62.5898 50.1874 63.9945 50.1875 65.4469V68.5547C50.1875 72.9991 51.9531 77.2616 55.0958 80.4043C58.2384 83.547 62.5009 85.3125 66.9453 85.3125C71.3898 85.3125 75.6522 83.547 78.7949 80.4043C81.9376 77.2616 83.7031 72.9991 83.7031 68.5547C83.7031 66.9385 84.3451 65.3886 85.4879 64.2458C86.6307 63.103 88.1807 62.4609 89.7969 62.4609C91.413 62.4609 92.963 63.103 94.1058 64.2458C95.2486 65.3886 95.8906 66.9385 95.8906 68.5547ZM56.2812 103.594C57.8974 103.594 59.4474 104.236 60.5902 105.379C61.733 106.521 62.375 108.071 62.375 109.688V182.812H208.625V109.688C208.625 108.071 209.267 106.521 210.41 105.379C211.553 104.236 213.103 103.594 214.719 103.594C216.335 103.594 217.885 104.236 219.028 105.379C220.17 106.521 220.812 108.071 220.812 109.688V182.812H226.906C228.522 182.812 230.072 183.455 231.215 184.597C232.358 185.74 233 187.29 233 188.906C233 190.522 232.358 192.072 231.215 193.215C230.072 194.358 228.522 195 226.906 195H44.0938C42.4776 195 40.9276 194.358 39.7848 193.215C38.642 192.072 38 190.522 38 188.906C38 187.29 38.642 185.74 39.7848 184.597C40.9276 183.455 42.4776 182.812 44.0938 182.812H50.1875V109.688C50.1875 108.071 50.8295 106.521 51.9723 105.379C53.1151 104.236 54.6651 103.594 56.2812 103.594ZM80.6562 109.688C82.2724 109.688 83.8224 110.33 84.9652 111.472C86.108 112.615 86.75 114.165 86.75 115.781V158.438H184.25V115.781C184.25 114.165 184.892 112.615 186.035 111.472C187.178 110.33 188.728 109.688 190.344 109.688C191.96 109.688 193.51 110.33 194.653 111.472C195.795 112.615 196.438 114.165 196.438 115.781V158.438C196.438 161.67 195.153 164.77 192.868 167.055C190.582 169.341 187.482 170.625 184.25 170.625H86.75C83.5177 170.625 80.4177 169.341 78.1321 167.055C75.8465 164.77 74.5625 161.67 74.5625 158.438V115.781C74.5625 114.165 75.2045 112.615 76.3473 111.472C77.4901 110.33 79.0401 109.688 80.6562 109.688Z" fill="black"/>
</svg>

