<svg width="192" height="192" viewBox="0 0 192 192" fill="none" xmlns="http://www.w3.org/2000/svg">
<path d="M151.587 130.141L124.885 112.785L134.952 94.3289C137.299 90.0192 138.53 85.1905 138.533 80.283V51.0667C138.533 40.1751 134.207 29.7296 126.505 22.0281C118.804 14.3267 108.358 10 97.4667 10C86.5752 10 76.1297 14.3267 68.4282 22.0281C60.7267 29.7296 56.4001 40.1751 56.4001 51.0667V80.283C56.4038 85.1906 57.635 90.0192 59.9817 94.3293L70.0485 112.785L43.3467 130.141C39.2429 132.797 35.8708 136.44 33.5392 140.737C31.2075 145.034 29.9907 149.846 30.0001 154.735V186H164.933V154.735C164.942 149.847 163.725 145.034 161.394 140.737C159.062 136.441 155.69 132.797 151.587 130.141ZM153.2 174.267H41.7334V154.735C41.728 151.802 42.4583 148.914 43.8573 146.336C45.2564 143.758 47.2796 141.572 49.7418 139.978L85.5504 116.703L70.2824 88.7109C68.8745 86.1248 68.1357 83.2276 68.1334 80.283V51.0667C68.1334 43.287 71.2239 35.8259 76.7249 30.3249C82.226 24.8238 89.687 21.7333 97.4667 21.7333C105.246 21.7333 112.707 24.8238 118.209 30.3249C123.71 35.8259 126.8 43.287 126.8 51.0667V80.283C126.798 83.2276 126.059 86.1248 124.651 88.7109L109.383 116.703L145.193 139.978C147.655 141.572 149.678 143.758 151.077 146.336C152.475 148.914 153.206 151.802 153.2 154.735V174.267Z" fill="black"/>
</svg>
