<svg width="48" height="48" viewBox="0 0 48 48" fill="none" xmlns="http://www.w3.org/2000/svg">
<g clip-path="url(#clip0_100_9986)">
<path d="M48 24.1467C48 10.8109 37.2547 0 24 0C10.7452 0 0 10.8109 0 24.1467C0 36.1989 8.7765 46.1886 20.25 48V31.1266H14.1562V24.1467H20.25V18.8269C20.25 12.7751 23.8331 9.43229 29.3153 9.43229C31.941 9.43229 34.6875 9.90391 34.6875 9.90391V15.8463H31.6613C28.6798 15.8463 27.75 17.7076 27.75 19.6173V24.1467H34.4062L33.3422 31.1266H27.75V48C39.2235 46.1886 48 36.1991 48 24.1467Z" fill="#1877F2"/>
<path d="M33.624 30.7718L34.7123 23.767H27.9041V19.2214C27.9041 17.3047 28.8552 15.4369 31.9047 15.4369H35V9.4733C35 9.4733 32.1908 9 29.5049 9C23.8978 9 20.2329 12.3548 20.2329 18.4282V23.767H14V30.7718H20.2329V47.7056C21.5017 47.9019 22.7842 48.0003 24.0685 48C25.3528 48.0003 26.6353 47.9019 27.9041 47.7056V30.7718H33.624Z" fill="white"/>
</g>
<defs>
<clipPath id="clip0_100_9986">
<rect width="48" height="48" fill="white"/>
</clipPath>
</defs>
</svg>
