<svg width="26" height="30" viewBox="0 0 26 30" fill="none" xmlns="http://www.w3.org/2000/svg">
<path d="M8.25016 3.91437C7.83024 3.91437 7.42751 4.08118 7.13058 4.37811C6.83364 4.67505 6.66683 5.07777 6.66683 5.4977C6.66683 5.91763 6.83364 6.32035 7.13058 6.61729C7.42751 6.91422 7.83024 7.08103 8.25016 7.08103C8.67009 7.08103 9.07282 6.91422 9.36975 6.61729C9.66668 6.32035 9.8335 5.91763 9.8335 5.4977C9.8335 5.07777 9.66668 4.67505 9.36975 4.37811C9.07282 4.08118 8.67009 3.91437 8.25016 3.91437ZM3.76933 3.91437C4.09645 2.98727 4.70308 2.18447 5.50561 1.61662C6.30814 1.04876 7.26705 0.74382 8.25016 0.74382C9.23328 0.74382 10.1922 1.04876 10.9947 1.61662C11.7972 2.18447 12.4039 2.98727 12.731 3.91437H24.0835C24.5034 3.91437 24.9062 4.08118 25.2031 4.37811C25.5 4.67505 25.6668 5.07777 25.6668 5.4977C25.6668 5.91763 25.5 6.32035 25.2031 6.61729C24.9062 6.91422 24.5034 7.08103 24.0835 7.08103H12.731C12.4039 8.00813 11.7972 8.81093 10.9947 9.37878C10.1922 9.94664 9.23328 10.2516 8.25016 10.2516C7.26705 10.2516 6.30814 9.94664 5.50561 9.37878C4.70308 8.81093 4.09645 8.00813 3.76933 7.08103H1.91683C1.4969 7.08103 1.09418 6.91422 0.797244 6.61729C0.500311 6.32035 0.333496 5.91763 0.333496 5.4977C0.333496 5.07777 0.500311 4.67505 0.797244 4.37811C1.09418 4.08118 1.4969 3.91437 1.91683 3.91437H3.76933ZM17.7502 13.4144C17.3302 13.4144 16.9275 13.5812 16.6306 13.8781C16.3336 14.175 16.1668 14.5778 16.1668 14.9977C16.1668 15.4176 16.3336 15.8204 16.6306 16.1173C16.9275 16.4142 17.3302 16.581 17.7502 16.581C18.1701 16.581 18.5728 16.4142 18.8697 16.1173C19.1667 15.8204 19.3335 15.4176 19.3335 14.9977C19.3335 14.5778 19.1667 14.175 18.8697 13.8781C18.5728 13.5812 18.1701 13.4144 17.7502 13.4144ZM13.2693 13.4144C13.5964 12.4873 14.2031 11.6845 15.0056 11.1166C15.8081 10.5488 16.767 10.2438 17.7502 10.2438C18.7333 10.2438 19.6922 10.5488 20.4947 11.1166C21.2972 11.6845 21.9039 12.4873 22.231 13.4144H24.0835C24.5034 13.4144 24.9062 13.5812 25.2031 13.8781C25.5 14.175 25.6668 14.5778 25.6668 14.9977C25.6668 15.4176 25.5 15.8204 25.2031 16.1173C24.9062 16.4142 24.5034 16.581 24.0835 16.581H22.231C21.9039 17.5081 21.2972 18.3109 20.4947 18.8788C19.6922 19.4466 18.7333 19.7516 17.7502 19.7516C16.767 19.7516 15.8081 19.4466 15.0056 18.8788C14.2031 18.3109 13.5964 17.5081 13.2693 16.581H1.91683C1.4969 16.581 1.09418 16.4142 0.797244 16.1173C0.500311 15.8204 0.333496 15.4176 0.333496 14.9977C0.333496 14.5778 0.500311 14.175 0.797244 13.8781C1.09418 13.5812 1.4969 13.4144 1.91683 13.4144H13.2693ZM8.25016 22.9144C7.83024 22.9144 7.42751 23.0812 7.13058 23.3781C6.83364 23.675 6.66683 24.0778 6.66683 24.4977C6.66683 24.9176 6.83364 25.3204 7.13058 25.6173C7.42751 25.9142 7.83024 26.081 8.25016 26.081C8.67009 26.081 9.07282 25.9142 9.36975 25.6173C9.66668 25.3204 9.8335 24.9176 9.8335 24.4977C9.8335 24.0778 9.66668 23.675 9.36975 23.3781C9.07282 23.0812 8.67009 22.9144 8.25016 22.9144ZM3.76933 22.9144C4.09645 21.9873 4.70308 21.1845 5.50561 20.6166C6.30814 20.0488 7.26705 19.7438 8.25016 19.7438C9.23328 19.7438 10.1922 20.0488 10.9947 20.6166C11.7972 21.1845 12.4039 21.9873 12.731 22.9144H24.0835C24.5034 22.9144 24.9062 23.0812 25.2031 23.3781C25.5 23.675 25.6668 24.0778 25.6668 24.4977C25.6668 24.9176 25.5 25.3204 25.2031 25.6173C24.9062 25.9142 24.5034 26.081 24.0835 26.081H12.731C12.4039 27.0081 11.7972 27.8109 10.9947 28.3788C10.1922 28.9466 9.23328 29.2516 8.25016 29.2516C7.26705 29.2516 6.30814 28.9466 5.50561 28.3788C4.70308 27.8109 4.09645 27.0081 3.76933 26.081H1.91683C1.4969 26.081 1.09418 25.9142 0.797244 25.6173C0.500311 25.3204 0.333496 24.9176 0.333496 24.4977C0.333496 24.0778 0.500311 23.675 0.797244 23.3781C1.09418 23.0812 1.4969 22.9144 1.91683 22.9144H3.76933Z" fill="black"/>
</svg>
