<svg width="36" height="38" viewBox="0 0 36 38" fill="none" xmlns="http://www.w3.org/2000/svg">
<path d="M10 14H26M16 18V24M20 18V24M11 14L12 26C12 26.5304 12.2107 27.0391 12.5858 27.4142C12.9609 27.7893 13.4696 28 14 28H22C22.5304 28 23.0391 27.7893 23.4142 27.4142C23.7893 27.0391 24 26.5304 24 26L25 14M15 14V11C15 10.7348 15.1054 10.4804 15.2929 10.2929C15.4804 10.1054 15.7348 10 16 10H20C20.2652 10 20.5196 10.1054 20.7071 10.2929C20.8946 10.4804 21 10.7348 21 11V14" stroke="black" stroke-width="2" stroke-linecap="round" stroke-linejoin="round"/>
</svg>
