<svg width="19" height="19" viewBox="0 0 19 19" fill="none" xmlns="http://www.w3.org/2000/svg">
<g clip-path="url(#clip0_1089_1140)">
<path d="M17.3931 9.50028C17.3931 11.5936 16.5616 13.6012 15.0814 15.0814C13.6012 16.5616 11.5936 17.3931 9.50028 17.3931C7.40696 17.3931 5.39938 16.5616 3.91919 15.0814C2.43899 13.6012 1.60742 11.5936 1.60742 9.50028M17.3931 9.50028C17.3931 7.40696 16.5616 5.39938 15.0814 3.91919C13.6012 2.43899 11.5936 1.60742 9.50028 1.60742C7.40696 1.60742 5.39938 2.43899 3.91919 3.91919C2.43899 5.39938 1.60742 7.40696 1.60742 9.50028M17.3931 9.50028H1.60742" stroke="#7B7B7B" stroke-width="1.5" stroke-linecap="round" stroke-linejoin="round"/>
<path d="M12.5363 9.50028C12.3872 12.3866 11.324 15.1508 9.50056 17.3931C7.67709 15.1508 6.61396 12.3866 6.46484 9.50028C6.61396 6.61393 7.67709 3.84978 9.50056 1.60742C11.324 3.84978 12.3872 6.61393 12.5363 9.50028Z" stroke="#7B7B7B" stroke-width="1.5" stroke-linecap="round" stroke-linejoin="round"/>
</g>
<defs>
<clipPath id="clip0_1089_1140">
<rect width="19" height="19" fill="white"/>
</clipPath>
</defs>
</svg>
